<?xml version="1.0" encoding="UTF-8"?>
<svg xmlns="http://www.w3.org/2000/svg" xmlns:xlink="http://www.w3.org/1999/xlink" width="1336pt" height="396pt" viewBox="0 0 1336 396" version="1.1">
<g id="surface1">
<path style=" stroke:none;fill-rule:nonzero;fill:rgb(100%,100%,100%);fill-opacity:1;" d="M 1326.496094 349.835938 C 1326.496094 370.820312 1309.53125 387.820312 1288.546875 387.820312 L 46.800781 387.820312 C 25.832031 387.820312 8.808594 370.820312 8.808594 349.835938 L 8.808594 46.875 C 8.808594 25.898438 25.832031 8.84375 46.800781 8.84375 L 1288.539062 8.84375 C 1309.53125 8.84375 1326.484375 25.898438 1326.484375 46.875 L 1326.496094 349.835938 "/>
<path style=" stroke:none;fill-rule:nonzero;fill:rgb(63.529412%,63.529412%,63.137255%);fill-opacity:1;" d="M 1288.546875 396.660156 L 46.800781 396.660156 C 21 396.660156 0 375.660156 0 349.835938 L 0 46.886719 C 0 21.039062 21 0.0117188 46.800781 0.0117188 L 1288.539062 0.0117188 C 1314.3125 0.0117188 1335.339844 21.039062 1335.339844 46.886719 L 1335.339844 349.835938 C 1335.363281 375.660156 1314.328125 396.660156 1288.546875 396.660156 "/>
<path style=" stroke:none;fill-rule:nonzero;fill:rgb(6.27451%,5.882353%,5.098039%);fill-opacity:1;" d="M 1326.496094 349.835938 C 1326.496094 370.820312 1309.53125 387.820312 1288.546875 387.820312 L 46.800781 387.820312 C 25.832031 387.820312 8.808594 370.820312 8.808594 349.835938 L 8.808594 46.875 C 8.808594 25.898438 25.832031 8.84375 46.800781 8.84375 L 1288.539062 8.84375 C 1309.53125 8.84375 1326.484375 25.898438 1326.484375 46.875 L 1326.496094 349.835938 "/>
<path style=" stroke:none;fill-rule:nonzero;fill:rgb(100%,100%,100%);fill-opacity:1;" d="M 298.175781 196.25 C 297.886719 164.277344 324.289062 148.726562 325.5 148.003906 C 310.542969 126.148438 287.363281 123.164062 279.21875 122.929688 C 259.753906 120.875 240.871094 134.597656 230.953125 134.597656 C 220.835938 134.597656 205.570312 123.121094 189.105469 123.460938 C 167.929688 123.792969 148.121094 136.078125 137.246094 155.164062 C 114.824219 194.074219 131.546875 251.257812 153.039062 282.710938 C 163.785156 298.125 176.339844 315.316406 192.777344 314.710938 C 208.863281 314.050781 214.871094 304.441406 234.28125 304.441406 C 253.507812 304.441406 259.148438 314.710938 275.914062 314.324219 C 293.175781 314.050781 304.042969 298.851562 314.414062 283.308594 C 326.835938 265.660156 331.820312 248.261719 332.015625 247.371094 C 331.621094 247.226562 298.507812 234.554688 298.175781 196.25 "/>
<path style=" stroke:none;fill-rule:nonzero;fill:rgb(100%,100%,100%);fill-opacity:1;" d="M 266.5 102.234375 C 275.152344 91.390625 281.070312 76.644531 279.429688 61.675781 C 266.90625 62.230469 251.253906 70.355469 242.238281 80.960938 C 234.257812 90.304688 227.132812 105.617188 228.972656 120.019531 C 243.035156 121.074219 257.476562 112.90625 266.5 102.234375 "/>
<path style=" stroke:none;fill-rule:nonzero;fill:rgb(100%,100%,100%);fill-opacity:1;" d="M 492.617188 257.457031 L 481.484375 222.992188 C 480.304688 219.46875 478.089844 211.175781 474.839844 198.125 L 474.441406 198.125 C 473.140625 203.738281 471.046875 212.027344 468.191406 222.992188 L 457.246094 257.457031 Z M 531.113281 312.496094 L 508.636719 312.496094 L 496.328125 273.722656 L 453.53125 273.722656 L 441.804688 312.496094 L 419.925781 312.496094 L 462.328125 180.5 L 488.515625 180.5 L 531.113281 312.496094 "/>
<path style=" stroke:none;fill-rule:nonzero;fill:rgb(100%,100%,100%);fill-opacity:1;" d="M 618.464844 264.511719 C 618.464844 255.246094 616.382812 247.605469 612.207031 241.589844 C 607.648438 235.328125 601.515625 232.191406 593.839844 232.191406 C 588.632812 232.191406 583.902344 233.9375 579.679688 237.378906 C 575.4375 240.851562 572.671875 245.382812 571.371094 251 C 570.71875 253.621094 570.398438 255.75 570.398438 257.441406 L 570.398438 273.316406 C 570.398438 280.230469 572.515625 286.074219 576.746094 290.855469 C 580.980469 295.613281 586.488281 298.003906 593.257812 298.003906 C 601.203125 298.003906 607.390625 294.921875 611.8125 288.800781 C 616.242188 282.660156 618.464844 274.566406 618.464844 264.511719 Z M 639.960938 263.738281 C 639.960938 279.921875 635.578125 292.71875 626.796875 302.109375 C 618.9375 310.472656 609.167969 314.648438 597.523438 314.648438 C 584.945312 314.648438 575.898438 310.160156 570.402344 301.148438 L 570.402344 351.09375 L 549.304688 351.09375 L 549.304688 248.597656 C 549.304688 238.433594 549.039062 228.007812 548.523438 217.316406 L 567.082031 217.316406 L 568.257812 232.402344 L 568.65625 232.402344 C 575.6875 221.035156 586.367188 215.351562 600.699219 215.351562 C 611.90625 215.351562 621.257812 219.78125 628.738281 228.664062 C 636.210938 237.558594 639.960938 249.238281 639.960938 263.738281 "/>
<path style=" stroke:none;fill-rule:nonzero;fill:rgb(100%,100%,100%);fill-opacity:1;" d="M 727.683594 264.511719 C 727.683594 255.246094 725.597656 247.605469 721.421875 241.589844 C 716.859375 235.328125 710.753906 232.191406 703.070312 232.191406 C 697.867188 232.191406 693.136719 233.9375 688.894531 237.378906 C 684.652344 240.851562 681.894531 245.382812 680.597656 251 C 679.949219 253.621094 679.605469 255.75 679.605469 257.441406 L 679.605469 273.316406 C 679.605469 280.230469 681.738281 286.074219 685.953125 290.855469 C 690.1875 295.605469 695.6875 298.003906 702.480469 298.003906 C 710.433594 298.003906 716.617188 294.921875 721.035156 288.800781 C 725.46875 282.660156 727.683594 274.566406 727.683594 264.511719 Z M 749.1875 263.738281 C 749.1875 279.921875 744.808594 292.71875 736.03125 302.109375 C 728.160156 310.472656 718.402344 314.648438 706.746094 314.648438 C 694.164062 314.648438 685.117188 310.160156 679.625 301.148438 L 679.625 351.09375 L 658.527344 351.09375 L 658.527344 248.597656 C 658.527344 238.433594 658.257812 228.007812 657.742188 217.316406 L 676.300781 217.316406 L 677.484375 232.402344 L 677.875 232.402344 C 684.898438 221.035156 695.578125 215.351562 709.921875 215.351562 C 721.113281 215.351562 730.46875 219.78125 737.972656 228.664062 C 745.429688 237.558594 749.1875 249.238281 749.1875 263.738281 "/>
<path style=" stroke:none;fill-rule:nonzero;fill:rgb(100%,100%,100%);fill-opacity:1;" d="M 871.320312 275.46875 C 871.320312 286.710938 867.402344 295.839844 859.613281 302.894531 C 851.039062 310.59375 839.078125 314.453125 823.730469 314.453125 C 809.558594 314.453125 798.199219 311.714844 789.632812 306.230469 L 794.507812 288.601562 C 803.757812 294.097656 813.929688 296.832031 824.992188 296.832031 C 832.949219 296.832031 839.128906 295.03125 843.546875 291.449219 C 847.96875 287.859375 850.210938 283.058594 850.210938 277.066406 C 850.210938 271.703125 848.359375 267.207031 844.730469 263.550781 C 841.074219 259.902344 835.035156 256.492188 826.558594 253.375 C 803.492188 244.75 791.953125 232.144531 791.953125 215.558594 C 791.953125 204.726562 796.035156 195.863281 804.171875 188.929688 C 812.304688 182.003906 823.089844 178.542969 836.507812 178.542969 C 848.496094 178.542969 858.480469 180.632812 866.40625 184.808594 L 861.113281 202.050781 C 853.652344 198 845.230469 195.976562 835.808594 195.976562 C 828.367188 195.976562 822.527344 197.816406 818.351562 201.464844 C 814.839844 204.726562 813.050781 208.703125 813.050781 213.425781 C 813.050781 218.636719 815.085938 222.960938 819.121094 226.351562 C 822.625 229.476562 829.019531 232.878906 838.265625 236.527344 C 849.605469 241.109375 857.9375 246.445312 863.273438 252.578125 C 868.648438 258.703125 871.320312 266.355469 871.320312 275.46875 "/>
<path style=" stroke:none;fill-rule:nonzero;fill:rgb(100%,100%,100%);fill-opacity:1;" d="M 941.257812 233.1875 L 918 233.1875 L 918 279.394531 C 918 291.152344 922.097656 297.011719 930.3125 297.011719 C 934.082031 297.011719 937.210938 296.695312 939.6875 296.035156 L 940.273438 312.09375 C 936.117188 313.648438 930.640625 314.433594 923.855469 314.433594 C 915.527344 314.433594 909.015625 311.882812 904.316406 306.78125 C 899.632812 301.6875 897.277344 293.144531 897.277344 281.125 L 897.277344 233.144531 L 883.429688 233.144531 L 883.429688 217.273438 L 897.277344 217.273438 L 897.277344 199.851562 L 918 193.578125 L 918 217.273438 L 941.257812 217.273438 L 941.257812 233.1875 "/>
<path style=" stroke:none;fill-rule:nonzero;fill:rgb(100%,100%,100%);fill-opacity:1;" d="M 1024.117188 264.605469 C 1024.117188 255.886719 1022.234375 248.410156 1018.464844 242.152344 C 1014.042969 234.59375 1007.707031 230.820312 999.503906 230.820312 C 991.050781 230.820312 984.570312 234.59375 980.152344 242.152344 C 976.371094 248.410156 974.488281 256.019531 974.488281 265.007812 C 974.488281 273.734375 976.371094 281.234375 980.152344 287.472656 C 984.714844 295.03125 991.082031 298.808594 999.320312 298.808594 C 1007.390625 298.808594 1013.714844 294.953125 1018.289062 287.285156 C 1022.167969 280.871094 1024.117188 273.347656 1024.117188 264.605469 Z M 1045.988281 264.125 C 1045.988281 278.75 1041.808594 290.765625 1033.476562 300.15625 C 1024.757812 309.828125 1013.160156 314.648438 998.703125 314.648438 C 984.746094 314.648438 973.65625 310.019531 965.378906 300.761719 C 957.105469 291.488281 952.964844 279.808594 952.964844 265.710938 C 952.964844 250.960938 957.238281 238.882812 965.765625 229.484375 C 974.308594 220.078125 985.804688 215.382812 1000.265625 215.382812 C 1014.203125 215.382812 1025.394531 220.023438 1033.867188 229.289062 C 1041.960938 238.277344 1045.988281 249.878906 1045.988281 264.125 "/>
<path style=" stroke:none;fill-rule:nonzero;fill:rgb(100%,100%,100%);fill-opacity:1;" d="M 1114.601562 235.910156 C 1112.515625 235.523438 1110.277344 235.328125 1107.957031 235.328125 C 1100.527344 235.328125 1094.789062 238.125 1090.753906 243.761719 C 1087.25 248.71875 1085.480469 254.988281 1085.480469 262.554688 L 1085.480469 312.496094 L 1064.390625 312.496094 L 1064.390625 247.289062 C 1064.390625 236.332031 1064.179688 226.335938 1063.773438 217.324219 L 1082.148438 217.324219 L 1082.921875 235.539062 L 1083.507812 235.539062 C 1085.742188 229.277344 1089.246094 224.230469 1094.054688 220.449219 C 1098.757812 217.046875 1103.835938 215.351562 1109.308594 215.351562 C 1111.257812 215.351562 1113.019531 215.492188 1114.585938 215.738281 L 1114.601562 235.910156 "/>
<path style=" stroke:none;fill-rule:nonzero;fill:rgb(100%,100%,100%);fill-opacity:1;" d="M 1188.84375 254.914062 C 1188.996094 248.640625 1187.609375 243.234375 1184.753906 238.664062 C 1181.097656 232.769531 1175.480469 229.832031 1167.945312 229.832031 C 1161.046875 229.832031 1155.425781 232.699219 1151.148438 238.453125 C 1147.640625 243.027344 1145.550781 248.519531 1144.90625 254.894531 Z M 1208.96875 260.402344 C 1208.96875 264.191406 1208.722656 267.382812 1208.195312 269.992188 L 1144.890625 269.992188 C 1145.136719 279.394531 1148.203125 286.601562 1154.078125 291.558594 C 1159.414062 295.980469 1166.3125 298.207031 1174.78125 298.207031 C 1184.15625 298.207031 1192.710938 296.71875 1200.394531 293.714844 L 1203.707031 308.382812 C 1194.71875 312.3125 1184.105469 314.261719 1171.867188 314.261719 C 1157.140625 314.261719 1145.582031 309.917969 1137.167969 301.25 C 1128.773438 292.570312 1124.570312 280.902344 1124.570312 266.292969 C 1124.570312 251.953125 1128.476562 240 1136.308594 230.46875 C 1144.5 220.292969 1155.570312 215.203125 1169.511719 215.203125 C 1183.199219 215.203125 1193.558594 220.292969 1200.59375 230.46875 C 1206.167969 238.53125 1208.96875 248.53125 1208.96875 260.402344 "/>
<path style=" stroke:none;fill-rule:nonzero;fill:rgb(100%,100%,100%);fill-opacity:1;" d="M 463.519531 106.203125 L 458.046875 89.265625 C 457.46875 87.523438 456.410156 83.488281 454.777344 77.039062 L 454.582031 77.039062 C 453.90625 79.832031 452.953125 83.875 451.503906 89.265625 L 446.128906 106.203125 Z M 482.441406 133.25 L 471.386719 133.25 L 465.339844 114.195312 L 444.308594 114.195312 L 438.539062 133.25 L 427.78125 133.25 L 448.625 68.371094 L 461.488281 68.371094 L 482.441406 133.25 "/>
<path style=" stroke:none;fill-rule:nonzero;fill:rgb(100%,100%,100%);fill-opacity:1;" d="M 534.558594 86.472656 L 516.882812 133.25 L 506.800781 133.25 L 489.695312 86.472656 L 500.839844 86.472656 L 508.816406 111.214844 C 510.164062 115.347656 511.308594 119.296875 512.171875 123.042969 L 512.460938 123.042969 C 513.234375 119.683594 514.375 115.738281 515.816406 111.214844 L 523.691406 86.472656 L 534.558594 86.472656 "/>
<path style=" stroke:none;fill-rule:nonzero;fill:rgb(100%,100%,100%);fill-opacity:1;" d="M 570.742188 109.953125 C 559.210938 109.953125 553.449219 112.75 553.449219 119.386719 C 553.449219 124.292969 556.433594 126.699219 560.558594 126.699219 C 565.84375 126.699219 570.742188 122.65625 570.742188 117.171875 Z M 572.183594 133.25 L 571.414062 127.867188 L 571.125 127.867188 C 567.960938 132.199219 563.347656 134.316406 557.492188 134.316406 C 549.136719 134.316406 543.175781 128.441406 543.175781 120.546875 C 543.175781 109.003906 553.167969 103.027344 570.453125 103.027344 L 570.453125 102.167969 C 570.453125 96.003906 567.191406 92.921875 560.753906 92.921875 C 556.144531 92.921875 552.109375 94.082031 548.5625 96.390625 L 546.457031 89.5625 C 550.78125 86.859375 556.15625 85.511719 562.496094 85.511719 C 574.6875 85.511719 580.847656 91.960938 580.847656 104.863281 L 580.847656 122.09375 C 580.847656 126.816406 581.042969 130.476562 581.519531 133.261719 L 572.183594 133.25 "/>
<path style=" stroke:none;fill-rule:nonzero;fill:rgb(100%,100%,100%);fill-opacity:1;" d="M 609.328125 133.25 L 598.957031 133.25 L 598.957031 86.472656 L 609.328125 86.472656 Z M 603.945312 78.765625 C 600.488281 78.765625 597.800781 76.070312 597.800781 72.511719 C 597.800781 68.945312 600.578125 66.347656 604.140625 66.347656 C 607.695312 66.347656 610.582031 68.945312 610.480469 72.511719 C 610.480469 76.265625 607.796875 78.765625 603.945312 78.765625 "/>
<path style=" stroke:none;fill-rule:nonzero;fill:rgb(100%,100%,100%);fill-opacity:1;" d="M 638.128906 133.25 L 627.757812 133.25 L 627.757812 65.011719 L 638.128906 65.011719 L 638.128906 133.25 "/>
<path style=" stroke:none;fill-rule:nonzero;fill:rgb(100%,100%,100%);fill-opacity:1;" d="M 680.761719 109.953125 C 669.234375 109.953125 663.476562 112.75 663.476562 119.386719 C 663.476562 124.292969 666.453125 126.699219 670.578125 126.699219 C 675.863281 126.699219 680.761719 122.65625 680.761719 117.171875 Z M 682.210938 133.25 L 681.441406 127.867188 L 681.148438 127.867188 C 677.984375 132.199219 673.375 134.316406 667.511719 134.316406 C 659.160156 134.316406 653.199219 128.441406 653.199219 120.546875 C 653.199219 109.003906 663.183594 103.027344 680.476562 103.027344 L 680.476562 102.167969 C 680.476562 96.003906 677.210938 92.921875 670.777344 92.921875 C 666.167969 92.921875 662.132812 94.082031 658.585938 96.390625 L 656.46875 89.550781 C 660.796875 86.851562 666.167969 85.5 672.507812 85.5 C 684.707031 85.5 690.859375 91.949219 690.859375 104.851562 L 690.859375 122.082031 C 690.859375 126.808594 691.066406 130.464844 691.527344 133.25 L 682.210938 133.25 "/>
<path style=" stroke:none;fill-rule:nonzero;fill:rgb(100%,100%,100%);fill-opacity:1;" d="M 730.777344 93.683594 C 724.804688 93.683594 719.339844 98.878906 719.339844 106.105469 L 719.339844 114.285156 C 719.339844 120.734375 724.253906 126.035156 730.59375 126.035156 C 738.363281 126.035156 742.988281 119.683594 742.988281 109.578125 C 742.972656 100.144531 738.171875 93.683594 730.777344 93.683594 Z M 732.882812 134.316406 C 726.265625 134.316406 721.375 131.515625 718.210938 126.035156 L 717.996094 126.035156 L 717.402344 133.25 L 708.566406 133.25 C 708.855469 129.503906 708.953125 125.261719 708.953125 120.644531 L 708.953125 65.011719 L 719.335938 65.011719 L 719.335938 93.320312 L 719.535156 93.320312 C 722.609375 88.121094 727.589844 85.523438 734.414062 85.523438 C 745.660156 85.523438 753.539062 95.152344 753.539062 109.199219 C 753.539062 123.71875 744.789062 134.316406 732.882812 134.316406 "/>
<path style=" stroke:none;fill-rule:nonzero;fill:rgb(100%,100%,100%);fill-opacity:1;" d="M 779.242188 133.25 L 768.878906 133.25 L 768.878906 65.011719 L 779.242188 65.011719 L 779.242188 133.25 "/>
<path style=" stroke:none;fill-rule:nonzero;fill:rgb(100%,100%,100%);fill-opacity:1;" d="M 826.1875 104.953125 C 826.1875 97.734375 822.539062 92.636719 815.910156 92.636719 C 809.949219 92.636719 805.257812 97.828125 804.5625 104.953125 Z M 835.699219 112.363281 L 804.5625 112.363281 C 804.777344 121.21875 810.613281 126.214844 819.261719 126.214844 C 823.871094 126.214844 828.101562 125.441406 831.839844 124.011719 L 833.453125 131.226562 C 829.039062 133.15625 823.851562 134.113281 817.808594 134.113281 C 803.195312 134.113281 794.5625 124.875 794.5625 110.539062 C 794.5625 96.195312 803.40625 85.414062 816.640625 85.414062 C 828.550781 85.414062 836.042969 94.269531 836.042969 107.652344 C 836.085938 109.476562 835.996094 111.113281 835.699219 112.363281 "/>
<path style=" stroke:none;fill-rule:nonzero;fill:rgb(100%,100%,100%);fill-opacity:1;" d="M 898.960938 93.109375 C 891.46875 93.109375 886.667969 100.132812 886.667969 109.953125 C 886.667969 119.585938 891.566406 126.601562 898.863281 126.601562 C 906.152344 126.601562 911.042969 119.097656 911.042969 109.753906 C 911.054688 100.234375 906.253906 93.109375 898.960938 93.109375 Z M 898.566406 134.316406 C 884.929688 134.316406 876.089844 124.105469 876.089844 110.25 C 876.089844 95.808594 885.117188 85.511719 899.347656 85.511719 C 912.777344 85.511719 921.824219 95.230469 921.824219 109.488281 C 921.824219 124.105469 912.5 134.316406 898.566406 134.316406 "/>
<path style=" stroke:none;fill-rule:nonzero;fill:rgb(100%,100%,100%);fill-opacity:1;" d="M 977.582031 133.25 L 967.222656 133.25 L 967.222656 106.390625 C 967.222656 98.121094 964.054688 93.972656 957.808594 93.972656 C 951.660156 93.972656 947.425781 99.273438 947.425781 105.429688 L 947.425781 133.25 L 937.066406 133.25 L 937.066406 99.847656 C 937.066406 95.707031 936.957031 91.277344 936.675781 86.464844 L 945.804688 86.464844 L 946.285156 93.683594 L 946.578125 93.683594 C 949.34375 88.683594 955.023438 85.5 961.359375 85.5 C 971.148438 85.5 977.582031 93.011719 977.582031 105.230469 L 977.582031 133.25 "/>
<path style=" stroke:none;fill-rule:nonzero;fill:rgb(100%,100%,100%);fill-opacity:1;" d="M 1045.445312 94.269531 L 1034.035156 94.269531 L 1034.035156 116.980469 C 1034.035156 122.765625 1036.042969 125.652344 1040.074219 125.652344 C 1041.898438 125.652344 1043.441406 125.457031 1044.683594 125.171875 L 1044.96875 133.0625 C 1042.953125 133.835938 1040.246094 134.222656 1036.914062 134.222656 C 1028.738281 134.222656 1023.855469 129.703125 1023.855469 117.859375 L 1023.855469 94.269531 L 1017.046875 94.269531 L 1017.046875 86.472656 L 1023.855469 86.472656 L 1023.855469 77.902344 L 1034.035156 74.820312 L 1034.035156 86.464844 L 1045.445312 86.464844 L 1045.445312 94.269531 "/>
<path style=" stroke:none;fill-rule:nonzero;fill:rgb(100%,100%,100%);fill-opacity:1;" d="M 1100.371094 133.25 L 1089.992188 133.25 L 1089.992188 106.589844 C 1089.992188 98.214844 1086.824219 93.984375 1080.582031 93.984375 C 1075.203125 93.984375 1070.214844 97.640625 1070.214844 105.050781 L 1070.214844 133.25 L 1059.832031 133.25 L 1059.832031 65.011719 L 1070.214844 65.011719 L 1070.214844 93.109375 L 1070.417969 93.109375 C 1073.683594 88.011719 1078.390625 85.5 1084.4375 85.5 C 1094.320312 85.5 1100.371094 93.199219 1100.371094 105.429688 L 1100.371094 133.25 "/>
<path style=" stroke:none;fill-rule:nonzero;fill:rgb(100%,100%,100%);fill-opacity:1;" d="M 1143.855469 104.953125 C 1143.855469 97.734375 1140.214844 92.636719 1133.585938 92.636719 C 1127.621094 92.636719 1122.929688 97.828125 1122.246094 104.953125 Z M 1153.371094 112.363281 L 1122.246094 112.363281 C 1122.441406 121.21875 1128.277344 126.214844 1136.929688 126.214844 C 1141.550781 126.214844 1145.769531 125.441406 1149.507812 124.011719 L 1151.132812 131.226562 C 1146.71875 133.15625 1141.523438 134.113281 1135.472656 134.113281 C 1120.867188 134.113281 1112.226562 124.875 1112.226562 110.539062 C 1112.226562 96.195312 1121.078125 85.414062 1134.304688 85.414062 C 1146.214844 85.414062 1153.71875 94.269531 1153.71875 107.652344 C 1153.757812 109.476562 1153.65625 111.113281 1153.371094 112.363281 "/>
</g>
</svg>
