<?xml version="1.0" encoding="UTF-8"?>
<svg xmlns="http://www.w3.org/2000/svg" xmlns:xlink="http://www.w3.org/1999/xlink" width="1336pt" height="396pt" viewBox="0 0 1336 396" version="1.1">
<defs>
<linearGradient id="linear0" gradientUnits="userSpaceOnUse" x1="1863.5309" y1="535.2899" x2="431.916" y2="1966.9039" gradientTransform="matrix(0.116012,0,0,-0.116118,-0.463909,372.14452)">
<stop offset="0" style="stop-color:rgb(0%,62.745098%,100%);stop-opacity:1;"/>
<stop offset="0.0066" style="stop-color:rgb(0%,63.137255%,100%);stop-opacity:1;"/>
<stop offset="0.2601" style="stop-color:rgb(0%,74.509804%,100%);stop-opacity:1;"/>
<stop offset="0.5122" style="stop-color:rgb(0%,82.352941%,100%);stop-opacity:1;"/>
<stop offset="0.7604" style="stop-color:rgb(0%,87.45098%,100%);stop-opacity:1;"/>
<stop offset="1" style="stop-color:rgb(0%,89.019608%,100%);stop-opacity:1;"/>
</linearGradient>
<linearGradient id="linear1" gradientUnits="userSpaceOnUse" x1="2890.2263" y1="1498.484" x2="826.1213" y2="1498.484" gradientTransform="matrix(0.116012,0,0,-0.116118,-0.463909,372.14452)">
<stop offset="0" style="stop-color:rgb(100%,87.843137%,0%);stop-opacity:1;"/>
<stop offset="0.4087" style="stop-color:rgb(100%,74.117647%,0%);stop-opacity:1;"/>
<stop offset="0.7754" style="stop-color:rgb(100%,64.705882%,0%);stop-opacity:1;"/>
<stop offset="1" style="stop-color:rgb(100%,61.176471%,0%);stop-opacity:1;"/>
</linearGradient>
<linearGradient id="linear2" gradientUnits="userSpaceOnUse" x1="1410.0299" y1="982.5275" x2="-531.3562" y2="2923.9136" gradientTransform="matrix(0.116012,0,0,-0.116118,-0.463909,372.14452)">
<stop offset="0" style="stop-color:rgb(100%,22.745098%,26.666667%);stop-opacity:1;"/>
<stop offset="1" style="stop-color:rgb(76.470588%,6.666667%,38.431373%);stop-opacity:1;"/>
</linearGradient>
<linearGradient id="linear3" gradientUnits="userSpaceOnUse" x1="-85.1447" y1="519.0669" x2="781.7711" y2="1385.9747" gradientTransform="matrix(0.116012,0,0,-0.116118,-0.463909,372.14452)">
<stop offset="0" style="stop-color:rgb(19.607843%,62.745098%,44.313725%);stop-opacity:1;"/>
<stop offset="0.0685" style="stop-color:rgb(17.647059%,65.490196%,44.313725%);stop-opacity:1;"/>
<stop offset="0.4762" style="stop-color:rgb(8.235294%,81.176471%,45.490196%);stop-opacity:1;"/>
<stop offset="0.8009" style="stop-color:rgb(2.352941%,90.588235%,45.882353%);stop-opacity:1;"/>
<stop offset="1" style="stop-color:rgb(0%,94.117647%,46.27451%);stop-opacity:1;"/>
</linearGradient>
</defs>
<g id="surface1">
<path style=" stroke:none;fill-rule:nonzero;fill:rgb(0%,0%,0%);fill-opacity:1;" d="M 1286.511719 396.242188 L 49.472656 396.242188 C 22.277344 396.242188 0 373.953125 0 346.726562 L 0 49.554688 C 0 22.332031 22.277344 0.0273438 49.472656 0.0273438 L 1286.511719 0.0273438 C 1313.710938 0.0273438 1335.988281 22.332031 1335.988281 49.554688 L 1335.988281 346.726562 C 1336 373.953125 1313.722656 396.242188 1286.511719 396.242188 Z M 1286.511719 396.242188 "/>
<path style=" stroke:none;fill-rule:nonzero;fill:rgb(65.098039%,65.098039%,65.098039%);fill-opacity:1;" d="M 1286.511719 7.960938 C 1309.425781 7.960938 1328.0625 26.621094 1328.0625 49.554688 L 1328.0625 346.726562 C 1328.0625 369.648438 1309.414062 388.324219 1286.511719 388.324219 L 49.472656 388.324219 C 26.5625 388.324219 7.925781 369.664062 7.925781 346.726562 L 7.925781 49.554688 C 7.925781 26.632812 26.574219 7.960938 49.472656 7.960938 L 1286.511719 7.960938 M 1286.511719 0.0273438 L 49.472656 0.0273438 C 22.277344 0.0273438 0 22.332031 0 49.554688 L 0 346.726562 C 0 373.953125 22.277344 396.261719 49.472656 396.261719 L 1286.511719 396.261719 C 1313.710938 396.261719 1335.988281 373.953125 1335.988281 346.726562 L 1335.988281 49.554688 C 1336 22.332031 1313.722656 0.0273438 1286.511719 0.0273438 Z M 1286.511719 0.0273438 "/>
<path style=" stroke:none;fill-rule:nonzero;fill:rgb(100%,100%,100%);fill-opacity:1;" d="M 440.066406 130.933594 C 431.351562 130.933594 423.832031 127.867188 417.683594 121.804688 C 411.550781 115.683594 408.449219 108.042969 408.449219 99.078125 C 408.449219 90.097656 411.5625 82.46875 417.683594 76.398438 C 423.804688 70.3125 431.339844 67.222656 440.066406 67.222656 C 444.304688 67.222656 448.503906 68.085938 452.554688 69.800781 C 456.574219 71.511719 459.789062 73.820312 462.136719 76.640625 L 462.601562 77.207031 L 456.316406 83.554688 L 455.757812 82.902344 C 451.917969 78.367188 446.792969 76.175781 440.066406 76.175781 C 434.058594 76.175781 428.78125 78.304688 424.382812 82.527344 C 420.019531 86.757812 417.8125 92.328125 417.8125 99.078125 C 417.8125 105.863281 420.019531 111.441406 424.382812 115.671875 C 428.828125 119.882812 434.117188 122.011719 440.066406 122.011719 C 446.46875 122.011719 451.851562 119.867188 456.097656 115.625 C 458.703125 113 460.226562 109.507812 460.746094 104.949219 L 439.277344 104.949219 L 439.277344 96.195312 L 469.453125 96.195312 L 469.59375 96.816406 C 469.902344 98.242188 470.054688 99.722656 470.054688 101.480469 C 470.054688 109.917969 467.507812 116.785156 462.476562 121.886719 C 456.722656 127.886719 449.1875 130.933594 440.066406 130.933594 Z M 440.066406 130.933594 "/>
<path style=" stroke:none;fill-rule:nonzero;fill:rgb(100%,100%,100%);fill-opacity:1;" d="M 515.652344 129.570312 L 479.429688 129.570312 L 479.429688 68.589844 L 515.652344 68.589844 L 515.652344 77.488281 L 488.652344 77.488281 L 488.652344 94.703125 L 513.003906 94.703125 L 513.003906 103.457031 L 488.652344 103.457031 L 488.652344 120.679688 L 515.652344 120.679688 Z M 515.652344 129.570312 "/>
<path style=" stroke:none;fill-rule:nonzero;fill:rgb(100%,100%,100%);fill-opacity:1;" d="M 547.839844 129.570312 L 538.617188 129.570312 L 538.617188 77.488281 L 522.042969 77.488281 L 522.042969 68.589844 L 564.414062 68.589844 L 564.414062 77.488281 L 547.839844 77.488281 Z M 547.839844 129.570312 "/>
<path style=" stroke:none;fill-rule:nonzero;fill:rgb(100%,100%,100%);fill-opacity:1;" d="M 601.566406 129.570312 L 592.347656 129.570312 L 592.347656 68.589844 L 601.566406 68.589844 Z M 601.566406 129.570312 "/>
<path style=" stroke:none;fill-rule:nonzero;fill:rgb(100%,100%,100%);fill-opacity:1;" d="M 635.402344 129.570312 L 626.238281 129.570312 L 626.238281 77.488281 L 609.605469 77.488281 L 609.605469 68.589844 L 652.027344 68.589844 L 652.027344 77.488281 L 635.394531 77.488281 L 635.394531 129.570312 Z M 635.402344 129.570312 "/>
<path style=" stroke:none;fill-rule:nonzero;fill:rgb(100%,100%,100%);fill-opacity:1;" d="M 706.707031 130.933594 C 697.839844 130.933594 690.320312 127.828125 684.34375 121.699219 C 678.386719 115.578125 675.367188 107.976562 675.367188 99.089844 C 675.367188 90.203125 678.386719 82.585938 684.34375 76.476562 C 690.320312 70.347656 697.839844 67.242188 706.707031 67.242188 C 715.515625 67.242188 723 70.371094 728.976562 76.535156 C 734.957031 82.679688 738.003906 90.277344 738.003906 99.097656 C 738.003906 107.984375 734.984375 115.59375 729.023438 121.710938 C 723.046875 127.828125 715.539062 130.933594 706.707031 130.933594 Z M 691.117188 115.59375 C 695.414062 119.929688 700.503906 122.027344 706.707031 122.027344 C 712.839844 122.027344 718.058594 119.855469 722.238281 115.59375 C 726.488281 111.304688 728.625 105.746094 728.625 99.078125 C 728.625 92.40625 726.476562 86.851562 722.238281 82.5625 C 718.046875 78.285156 712.828125 76.128906 706.707031 76.128906 C 700.519531 76.128906 695.414062 78.238281 691.117188 82.5625 C 686.882812 86.851562 684.742188 92.40625 684.742188 99.078125 C 684.730469 105.746094 686.882812 111.304688 691.117188 115.59375 Z M 691.117188 115.59375 "/>
<path style=" stroke:none;fill-rule:nonzero;fill:rgb(100%,100%,100%);fill-opacity:1;" d="M 794.464844 129.570312 L 785.28125 129.570312 L 785.046875 129.195312 L 756.035156 82.644531 L 756.300781 91.75 L 756.300781 129.570312 L 747.132812 129.570312 L 747.132812 68.589844 L 757.632812 68.589844 L 785.519531 113.246094 L 785.253906 104.1875 L 785.253906 68.589844 L 794.464844 68.589844 Z M 794.464844 129.570312 "/>
<path style=" stroke:none;fill-rule:nonzero;fill:rgb(100%,100%,100%);fill-opacity:1;" d="M 674.277344 215.5 C 651.039062 215.5 632.046875 233.210938 632.046875 257.636719 C 632.046875 281.859375 651.039062 299.761719 674.277344 299.761719 C 697.574219 299.761719 716.554688 281.859375 716.554688 257.636719 C 716.566406 233.210938 697.574219 215.5 674.277344 215.5 Z M 674.277344 283.164062 C 661.523438 283.164062 650.554688 272.625 650.554688 257.636719 C 650.554688 242.445312 661.523438 232.09375 674.277344 232.09375 C 687.03125 232.09375 698.050781 242.445312 698.050781 257.636719 C 698.058594 272.625 687.03125 283.164062 674.277344 283.164062 Z M 582.128906 215.5 C 558.835938 215.5 539.902344 233.210938 539.902344 257.636719 C 539.902344 281.859375 558.835938 299.761719 582.128906 299.761719 C 605.417969 299.761719 624.359375 281.859375 624.359375 257.636719 C 624.359375 233.210938 605.417969 215.5 582.128906 215.5 Z M 582.128906 283.164062 C 569.367188 283.164062 558.359375 272.625 558.359375 257.636719 C 558.359375 242.445312 569.367188 232.09375 582.128906 232.09375 C 594.886719 232.09375 605.855469 242.445312 605.855469 257.636719 C 605.855469 272.625 594.886719 283.164062 582.128906 283.164062 Z M 472.484375 228.417969 L 472.484375 246.328125 L 515.199219 246.328125 C 513.953125 256.332031 510.609375 263.683594 505.492188 268.804688 C 499.25 274.992188 489.542969 281.875 472.484375 281.875 C 446.203125 281.875 425.609375 260.640625 425.609375 234.324219 C 425.609375 208.007812 446.203125 186.769531 472.484375 186.769531 C 486.695312 186.769531 497.042969 192.328125 504.667969 199.535156 L 517.273438 186.925781 C 506.605469 176.726562 492.40625 168.886719 472.484375 168.886719 C 436.433594 168.886719 406.144531 198.246094 406.144531 234.324219 C 406.144531 270.402344 436.445312 299.761719 472.484375 299.761719 C 491.960938 299.761719 506.605469 293.371094 518.105469 281.378906 C 529.902344 269.578125 533.570312 252.996094 533.570312 239.597656 C 533.570312 235.4375 533.21875 231.613281 532.609375 228.417969 C 532.609375 228.417969 472.484375 228.417969 472.484375 228.417969 Z M 920.863281 242.289062 C 917.386719 232.871094 906.660156 215.5 884.8125 215.5 C 863.15625 215.5 845.136719 232.574219 845.136719 257.636719 C 845.136719 281.242188 862.972656 299.761719 886.878906 299.761719 C 906.21875 299.761719 917.378906 287.957031 921.960938 281.089844 L 907.609375 271.511719 C 902.816406 278.523438 896.304688 283.164062 886.878906 283.164062 C 877.515625 283.164062 870.796875 278.859375 866.5 270.402344 L 922.796875 247.089844 C 922.804688 247.089844 920.863281 242.289062 920.863281 242.289062 Z M 863.457031 256.324219 C 862.972656 240.078125 876.0625 231.757812 885.433594 231.757812 C 892.78125 231.757812 899.023438 235.4375 901.09375 240.699219 C 901.105469 240.699219 863.457031 256.324219 863.457031 256.324219 Z M 817.710938 297.191406 L 836.214844 297.191406 L 836.214844 173.375 L 817.710938 173.375 Z M 787.394531 224.886719 L 786.785156 224.886719 C 782.628906 219.964844 774.703125 215.5 764.65625 215.5 C 743.578125 215.5 724.300781 234.019531 724.300781 257.777344 C 724.300781 281.394531 743.566406 299.761719 764.65625 299.761719 C 774.703125 299.761719 782.628906 295.269531 786.785156 290.1875 L 787.394531 290.1875 L 787.394531 296.230469 C 787.394531 312.339844 778.800781 320.996094 764.933594 320.996094 C 753.625 320.996094 746.609375 312.832031 743.71875 305.953125 L 727.617188 312.675781 C 732.265625 323.84375 744.539062 337.597656 764.933594 337.597656 C 786.632812 337.597656 804.941406 324.816406 804.941406 293.726562 L 804.941406 218.066406 L 787.394531 218.066406 Z M 766.226562 283.164062 C 753.476562 283.164062 742.804688 272.472656 742.804688 257.765625 C 742.804688 242.914062 753.476562 232.085938 766.226562 232.085938 C 778.800781 232.085938 788.703125 242.914062 788.703125 257.765625 C 788.703125 272.488281 778.800781 283.164062 766.226562 283.164062 Z M 1007.5 173.375 L 963.246094 173.375 L 963.246094 297.191406 L 981.703125 297.191406 L 981.703125 250.273438 L 1007.511719 250.273438 C 1028.011719 250.273438 1048.113281 235.421875 1048.113281 211.816406 C 1048.097656 188.222656 1027.953125 173.375 1007.5 173.375 Z M 1007.984375 233.054688 L 981.703125 233.054688 L 981.703125 190.605469 L 1007.984375 190.605469 C 1021.769531 190.605469 1029.628906 202.054688 1029.628906 211.828125 C 1029.628906 221.40625 1021.757812 233.054688 1007.984375 233.054688 Z M 1122.078125 215.261719 C 1108.746094 215.261719 1094.878906 221.160156 1089.175781 234.21875 L 1105.550781 241.085938 C 1109.078125 234.21875 1115.558594 231.988281 1122.414062 231.988281 C 1131.984375 231.988281 1141.695312 237.746094 1141.847656 247.917969 L 1141.847656 249.222656 C 1138.5 247.289062 1131.355469 244.425781 1122.5625 244.425781 C 1104.925781 244.425781 1086.949219 254.140625 1086.949219 272.289062 C 1086.949219 288.882812 1101.394531 299.558594 1117.640625 299.558594 C 1130.0625 299.558594 1136.914062 293.949219 1141.21875 287.429688 L 1141.855469 287.429688 L 1141.855469 297.007812 L 1159.679688 297.007812 L 1159.679688 249.511719 C 1159.667969 227.550781 1143.292969 215.261719 1122.078125 215.261719 Z M 1119.84375 283.117188 C 1113.800781 283.117188 1105.398438 280.117188 1105.398438 272.625 C 1105.398438 263.039062 1115.882812 259.371094 1124.96875 259.371094 C 1133.09375 259.371094 1136.90625 261.160156 1141.847656 263.535156 C 1140.394531 274.992188 1130.539062 283.117188 1119.84375 283.117188 Z M 1224.617188 217.972656 L 1203.402344 271.652344 L 1202.765625 271.652344 L 1180.835938 217.972656 L 1160.925781 217.972656 L 1193.878906 292.988281 L 1175.070312 334.722656 L 1194.351562 334.722656 L 1245.136719 217.972656 C 1245.148438 217.972656 1224.617188 217.972656 1224.617188 217.972656 Z M 1058.246094 297.191406 L 1076.753906 297.191406 L 1076.753906 173.375 L 1058.246094 173.375 Z M 1058.246094 297.191406 "/>
<path style=" stroke:none;fill-rule:nonzero;fill:url(#linear0);" d="M 103.269531 74.695312 C 100.367188 77.746094 98.675781 82.480469 98.675781 88.625 L 98.675781 307.683594 C 98.675781 313.824219 100.351562 318.574219 103.269531 321.609375 L 103.988281 322.277344 L 226.628906 199.570312 L 226.628906 196.675781 L 103.988281 73.984375 Z M 103.269531 74.695312 "/>
<path style=" stroke:none;fill-rule:nonzero;fill:url(#linear1);" d="M 267.460938 240.511719 L 226.628906 199.59375 L 226.628906 196.699219 L 267.519531 155.78125 L 268.429688 156.308594 L 316.855469 183.886719 C 330.675781 191.714844 330.675781 204.585938 316.855469 212.460938 L 268.429688 239.980469 C 268.421875 239.972656 267.460938 240.511719 267.460938 240.511719 Z M 267.460938 240.511719 "/>
<path style=" stroke:none;fill-rule:nonzero;fill:url(#linear2);" d="M 268.421875 239.972656 L 226.617188 198.128906 L 103.269531 321.621094 C 107.867188 326.449219 115.339844 327.035156 123.855469 322.207031 L 268.421875 239.972656 "/>
<path style=" stroke:none;fill-rule:nonzero;fill:url(#linear3);" d="M 268.421875 156.296875 L 123.847656 74.0625 C 115.339844 69.28125 107.851562 69.867188 103.257812 74.695312 L 226.617188 198.128906 Z M 268.421875 156.296875 "/>
</g>
</svg>
