<?xml version="1.0" encoding="UTF-8"?>
<svg xmlns="http://www.w3.org/2000/svg" xmlns:xlink="http://www.w3.org/1999/xlink" width="1336pt" height="396pt" viewBox="0 0 1336 396" version="1.1">
<g id="surface1">
<path style=" stroke:none;fill-rule:nonzero;fill:rgb(65.098039%,65.098039%,65.098039%);fill-opacity:1;" d="M 1287.984375 396.265625 L 46.492188 396.265625 C 20.773438 396.265625 0 375.460938 0 349.703125 L 0 46.5625 C 0 20.804688 20.773438 0 46.492188 0 L 1287.984375 0 C 1313.703125 0 1335.46875 20.804688 1335.46875 46.5625 L 1335.46875 348.714844 C 1335.46875 375.460938 1313.703125 396.265625 1287.984375 396.265625 Z M 1287.984375 396.265625 "/>
<path style=" stroke:none;fill-rule:nonzero;fill:rgb(0%,0%,0%);fill-opacity:1;" d="M 1325.574219 349.703125 C 1325.574219 370.511719 1308.757812 387.347656 1287.984375 387.347656 L 46.492188 387.347656 C 25.71875 387.347656 8.902344 370.511719 8.902344 349.703125 L 8.902344 46.5625 C 8.902344 25.757812 25.71875 8.917969 46.492188 8.917969 L 1287.984375 8.917969 C 1308.757812 8.917969 1325.574219 25.757812 1325.574219 46.5625 Z M 1325.574219 349.703125 "/>
<path style=" stroke:none;fill-rule:nonzero;fill:rgb(100%,100%,100%);fill-opacity:1;" d="M 529.242188 211.011719 L 505.5 294.230469 L 493.625 294.230469 L 476.808594 233.796875 C 475.820312 230.828125 475.820312 228.839844 475.820312 224.878906 C 475.820312 227.851562 474.832031 230.828125 473.84375 232.808594 L 457.027344 294.230469 L 445.15625 294.230469 L 420.425781 211.011719 L 431.308594 211.011719 L 449.113281 274.414062 C 450.101562 277.382812 450.101562 280.359375 450.101562 282.339844 C 450.101562 280.359375 451.089844 277.382812 452.078125 274.414062 L 470.875 211.011719 L 479.777344 211.011719 L 497.582031 275.402344 C 498.570312 277.382812 498.570312 280.359375 498.570312 283.332031 C 498.570312 281.351562 499.5625 278.375 500.550781 275.402344 L 517.371094 211.011719 C 517.371094 211.011719 529.242188 211.011719 529.242188 211.011719 Z M 529.242188 211.011719 "/>
<path style=" stroke:none;fill-rule:nonzero;fill:rgb(100%,100%,100%);fill-opacity:1;" d="M 545.070312 219.929688 C 543.089844 219.929688 542.101562 218.9375 541.113281 217.949219 C 540.121094 216.957031 539.132812 214.972656 539.132812 213.984375 C 539.132812 212.992188 540.121094 211.011719 541.113281 210.023438 C 542.101562 209.03125 544.078125 208.042969 545.070312 208.042969 C 547.046875 208.042969 548.035156 209.03125 549.027344 210.023438 C 550.015625 211.011719 551.003906 212.992188 551.003906 213.984375 C 551.003906 215.964844 550.015625 216.957031 549.027344 217.949219 C 548.035156 218.9375 546.058594 219.929688 545.070312 219.929688 Z M 549.027344 294.230469 L 539.132812 294.230469 L 539.132812 234.789062 L 549.027344 234.789062 Z M 549.027344 294.230469 "/>
<path style=" stroke:none;fill-rule:nonzero;fill:rgb(100%,100%,100%);fill-opacity:1;" d="M 618.273438 294.230469 L 608.375 294.230469 L 608.375 260.546875 C 608.375 247.667969 603.429688 241.726562 594.527344 241.726562 C 589.582031 241.726562 585.625 243.707031 582.65625 246.675781 C 579.691406 249.648438 577.710938 254.605469 577.710938 260.546875 L 577.710938 294.230469 L 567.820312 294.230469 L 567.820312 234.789062 L 577.710938 234.789062 L 577.710938 244.695312 C 582.65625 236.769531 588.59375 233.796875 597.496094 233.796875 C 604.421875 233.796875 609.367188 235.777344 612.339844 239.738281 C 615.304688 243.707031 617.285156 249.648438 617.285156 257.574219 L 617.285156 294.230469 Z M 618.273438 294.230469 "/>
<path style=" stroke:none;fill-rule:nonzero;fill:rgb(100%,100%,100%);fill-opacity:1;" d="M 686.527344 294.230469 L 676.636719 294.230469 L 676.636719 284.320312 C 672.679688 292.25 665.753906 296.210938 655.863281 296.210938 C 647.949219 296.210938 642.015625 293.238281 638.058594 288.28125 C 634.101562 283.332031 631.132812 275.402344 631.132812 266.492188 C 631.132812 256.585938 634.101562 248.65625 639.046875 242.714844 C 643.992188 236.769531 650.917969 233.796875 658.832031 233.796875 C 666.746094 233.796875 672.679688 236.769531 676.636719 243.707031 L 676.636719 207.050781 L 686.527344 207.050781 Z M 676.636719 267.480469 L 676.636719 258.566406 C 676.636719 253.609375 674.65625 249.648438 671.691406 246.675781 C 668.722656 243.707031 664.765625 241.726562 659.820312 241.726562 C 653.886719 241.726562 649.929688 243.707031 645.972656 247.667969 C 642.015625 251.628906 641.023438 257.574219 641.023438 265.496094 C 641.023438 272.433594 643.003906 277.382812 645.972656 281.351562 C 648.9375 285.3125 653.886719 287.292969 658.832031 287.292969 C 663.777344 287.292969 668.722656 285.3125 671.691406 281.351562 C 675.648438 278.375 676.636719 273.421875 676.636719 267.480469 Z M 676.636719 267.480469 "/>
<path style=" stroke:none;fill-rule:nonzero;fill:rgb(100%,100%,100%);fill-opacity:1;" d="M 730.058594 295.21875 C 721.148438 295.21875 714.226562 292.25 709.28125 287.292969 C 704.332031 282.339844 701.367188 274.414062 701.367188 265.496094 C 701.367188 255.59375 704.332031 247.667969 709.28125 241.726562 C 714.226562 235.777344 722.140625 233.796875 731.046875 233.796875 C 739.949219 233.796875 746.875 236.769531 751.820312 241.726562 C 756.765625 246.675781 759.734375 254.605469 759.734375 264.507812 C 759.734375 274.414062 756.765625 281.351562 751.820312 287.292969 C 746.875 293.238281 739.949219 295.21875 730.058594 295.21875 Z M 731.046875 241.726562 C 725.113281 241.726562 720.160156 243.707031 716.203125 247.667969 C 712.246094 251.628906 711.257812 257.574219 711.257812 264.507812 C 711.257812 271.441406 713.234375 277.382812 716.203125 281.351562 C 719.171875 285.3125 724.121094 287.292969 731.046875 287.292969 C 736.980469 287.292969 741.929688 285.3125 744.894531 281.351562 C 747.863281 277.382812 749.839844 271.441406 749.839844 264.507812 C 749.839844 256.585938 747.863281 251.628906 744.894531 247.667969 C 741.929688 243.707031 736.980469 241.726562 731.046875 241.726562 Z M 731.046875 241.726562 "/>
<path style=" stroke:none;fill-rule:nonzero;fill:rgb(100%,100%,100%);fill-opacity:1;" d="M 849.753906 234.789062 L 831.945312 294.230469 L 822.050781 294.230469 L 810.183594 251.628906 C 810.183594 249.648438 809.191406 248.65625 809.191406 245.6875 C 809.191406 246.675781 808.203125 248.65625 808.203125 250.636719 L 795.34375 293.238281 L 785.453125 293.238281 L 767.648438 233.796875 L 777.539062 233.796875 L 789.410156 278.375 C 789.410156 279.371094 790.398438 281.351562 790.398438 283.332031 C 790.398438 281.351562 790.398438 279.371094 791.386719 277.382812 L 805.234375 232.808594 L 814.136719 232.808594 L 826.007812 277.382812 C 826.007812 278.375 826.996094 280.359375 826.996094 282.339844 C 826.996094 280.359375 826.996094 279.371094 827.988281 277.382812 L 839.863281 232.808594 L 849.753906 232.808594 Z M 849.753906 234.789062 "/>
<path style=" stroke:none;fill-rule:nonzero;fill:rgb(100%,100%,100%);fill-opacity:1;" d="M 857.667969 292.25 L 857.667969 282.339844 C 862.613281 286.300781 868.550781 288.28125 874.484375 288.28125 C 882.398438 288.28125 887.34375 285.3125 887.34375 280.359375 C 887.34375 278.375 887.34375 277.382812 886.355469 276.394531 C 885.367188 275.402344 884.375 274.414062 883.386719 273.421875 C 882.398438 272.433594 880.417969 271.441406 879.429688 271.441406 C 878.441406 271.441406 876.460938 270.453125 874.484375 269.460938 C 871.515625 268.472656 869.539062 267.480469 867.558594 266.492188 C 865.582031 265.496094 863.601562 264.507812 862.613281 262.527344 C 861.625 260.546875 860.636719 259.554688 859.644531 257.574219 C 858.65625 255.59375 858.65625 253.609375 858.65625 251.628906 C 858.65625 248.65625 859.644531 246.675781 860.636719 244.695312 C 861.625 242.714844 863.601562 240.730469 865.582031 239.738281 C 867.558594 238.75 870.527344 236.769531 872.507812 236.769531 C 874.484375 236.769531 878.441406 235.777344 881.410156 235.777344 C 886.355469 235.777344 891.300781 236.769531 895.257812 238.75 L 895.257812 248.65625 C 891.300781 245.6875 886.355469 244.695312 880.417969 244.695312 C 878.441406 244.695312 877.453125 244.695312 875.472656 245.6875 C 873.496094 246.675781 872.507812 246.675781 871.515625 247.667969 C 870.527344 248.65625 869.539062 249.648438 869.539062 250.636719 C 869.539062 251.628906 868.550781 252.617188 868.550781 253.609375 C 868.550781 255.59375 868.550781 256.585938 869.539062 257.574219 C 870.527344 258.566406 870.527344 259.554688 871.515625 260.546875 C 872.507812 261.535156 873.496094 262.527344 875.472656 262.527344 C 877.453125 262.527344 878.441406 263.515625 880.417969 264.507812 C 883.386719 265.496094 885.367188 266.492188 887.34375 267.480469 C 889.320312 268.472656 891.300781 269.460938 892.289062 271.441406 C 893.277344 273.421875 895.257812 274.414062 895.257812 276.394531 C 895.257812 278.375 896.246094 280.359375 896.246094 282.339844 C 896.246094 285.3125 895.257812 288.28125 894.269531 290.261719 C 893.277344 292.25 891.300781 294.230469 889.320312 295.21875 C 887.34375 296.210938 884.375 298.191406 881.410156 298.191406 C 878.441406 298.191406 875.472656 299.179688 872.507812 299.179688 C 867.558594 295.21875 861.625 294.230469 857.667969 292.25 Z M 857.667969 292.25 "/>
<path style=" stroke:none;fill-rule:nonzero;fill:rgb(100%,100%,100%);fill-opacity:1;" d="M 941.75 291.257812 L 941.75 279.371094 C 942.738281 280.359375 944.714844 281.351562 946.699219 282.339844 C 948.679688 283.332031 950.65625 284.320312 952.636719 284.320312 C 954.613281 284.320312 956.59375 285.3125 958.570312 285.3125 C 960.550781 285.3125 962.527344 286.300781 964.503906 286.300781 C 970.441406 286.300781 975.386719 285.3125 978.355469 283.332031 C 981.320312 281.351562 982.3125 278.375 982.3125 273.421875 C 982.3125 271.441406 982.3125 269.460938 981.320312 267.480469 C 980.332031 265.496094 979.34375 264.507812 977.363281 262.527344 C 975.386719 260.546875 973.410156 259.554688 971.429688 258.566406 C 969.453125 257.574219 966.484375 255.59375 963.515625 254.605469 C 960.550781 253.609375 957.582031 251.628906 955.601562 249.648438 C 953.625 247.667969 949.667969 247.667969 947.6875 245.6875 C 945.707031 243.707031 944.714844 241.726562 943.726562 239.738281 C 942.738281 237.757812 941.75 234.789062 941.75 231.816406 C 941.75 227.851562 942.738281 224.878906 944.714844 221.910156 C 946.699219 218.9375 948.679688 216.957031 951.644531 214.972656 C 954.613281 212.992188 957.582031 212.003906 960.550781 211.011719 C 963.515625 210.023438 967.472656 210.023438 971.429688 210.023438 C 979.34375 210.023438 985.277344 211.011719 989.234375 212.992188 L 989.234375 223.890625 C 983.300781 219.929688 977.363281 217.949219 969.453125 217.949219 C 967.472656 217.949219 965.496094 217.949219 963.515625 218.9375 C 961.539062 219.929688 959.558594 219.929688 957.582031 220.917969 C 955.601562 221.910156 954.613281 222.898438 953.625 224.878906 C 952.636719 226.859375 951.644531 228.839844 951.644531 230.828125 C 951.644531 232.808594 951.644531 234.789062 952.636719 236.769531 C 953.625 238.75 954.613281 239.738281 956.59375 240.730469 C 958.570312 241.726562 959.558594 243.707031 962.527344 244.695312 C 965.496094 245.6875 967.472656 247.667969 970.441406 248.65625 C 973.410156 249.648438 976.375 251.628906 979.34375 253.609375 C 982.3125 255.59375 984.289062 256.585938 986.269531 258.566406 C 988.246094 260.546875 990.222656 262.527344 991.214844 265.496094 C 992.203125 268.472656 993.191406 270.453125 993.191406 273.421875 C 993.191406 277.382812 992.203125 281.351562 991.214844 284.320312 C 990.222656 287.292969 987.257812 289.273438 984.289062 291.257812 C 981.320312 293.238281 978.355469 294.230469 974.398438 295.21875 C 970.441406 296.210938 967.472656 296.210938 963.515625 296.210938 C 962.527344 296.210938 960.550781 296.210938 958.570312 296.210938 C 956.59375 296.210938 954.613281 295.21875 952.636719 295.21875 C 950.65625 295.21875 948.679688 294.230469 946.699219 293.238281 C 944.714844 292.25 942.738281 291.257812 941.75 291.257812 Z M 941.75 291.257812 "/>
<path style=" stroke:none;fill-rule:nonzero;fill:rgb(100%,100%,100%);fill-opacity:1;" d="M 1030.78125 293.238281 C 1028.804688 294.230469 1025.835938 295.21875 1021.878906 295.21875 C 1010.996094 295.21875 1006.050781 289.273438 1006.050781 277.382812 L 1006.050781 241.726562 L 996.160156 241.726562 L 996.160156 233.796875 L 1006.050781 233.796875 L 1006.050781 218.9375 L 1015.945312 215.964844 L 1015.945312 233.796875 L 1030.78125 233.796875 L 1030.78125 241.726562 L 1015.945312 241.726562 L 1015.945312 275.402344 C 1015.945312 279.371094 1016.933594 282.339844 1017.921875 284.320312 C 1018.910156 286.300781 1021.878906 287.292969 1024.847656 287.292969 C 1026.824219 287.292969 1029.792969 286.300781 1030.78125 285.3125 C 1030.78125 285.3125 1030.78125 293.238281 1030.78125 293.238281 Z M 1030.78125 293.238281 "/>
<path style=" stroke:none;fill-rule:nonzero;fill:rgb(100%,100%,100%);fill-opacity:1;" d="M 1068.375 295.21875 C 1059.472656 295.21875 1052.542969 292.25 1047.597656 287.292969 C 1042.652344 282.339844 1039.683594 274.414062 1039.683594 265.496094 C 1039.683594 255.59375 1042.652344 247.667969 1047.597656 241.726562 C 1052.542969 235.777344 1060.460938 233.796875 1069.363281 233.796875 C 1078.265625 233.796875 1085.191406 236.769531 1090.136719 241.726562 C 1095.082031 246.675781 1098.050781 254.605469 1098.050781 264.507812 C 1098.050781 274.414062 1095.082031 281.351562 1090.136719 287.292969 C 1085.191406 293.238281 1077.277344 295.21875 1068.375 295.21875 Z M 1069.363281 241.726562 C 1063.429688 241.726562 1058.484375 243.707031 1054.523438 247.667969 C 1050.566406 251.628906 1049.574219 257.574219 1049.574219 264.507812 C 1049.574219 271.441406 1051.554688 277.382812 1054.523438 281.351562 C 1057.496094 285.3125 1062.441406 287.292969 1069.363281 287.292969 C 1075.300781 287.292969 1080.246094 285.3125 1083.214844 281.351562 C 1086.179688 277.382812 1088.160156 271.441406 1088.160156 264.507812 C 1088.160156 256.585938 1086.179688 251.628906 1083.214844 247.667969 C 1080.246094 243.707031 1075.300781 241.726562 1069.363281 241.726562 Z M 1069.363281 241.726562 "/>
<path style=" stroke:none;fill-rule:nonzero;fill:rgb(100%,100%,100%);fill-opacity:1;" d="M 1143.554688 244.695312 C 1141.574219 243.707031 1139.597656 242.714844 1136.628906 242.714844 C 1132.671875 242.714844 1128.714844 244.695312 1126.738281 248.65625 C 1124.757812 252.617188 1122.78125 257.574219 1122.78125 264.507812 L 1122.78125 295.21875 L 1112.890625 295.21875 L 1112.890625 235.777344 L 1122.78125 235.777344 L 1122.78125 247.667969 C 1123.769531 243.707031 1125.75 239.738281 1128.714844 237.757812 C 1131.683594 235.777344 1134.652344 233.796875 1137.617188 233.796875 C 1140.585938 233.796875 1141.574219 233.796875 1143.554688 234.789062 Z M 1143.554688 244.695312 "/>
<path style=" stroke:none;fill-rule:nonzero;fill:rgb(100%,100%,100%);fill-opacity:1;" d="M 1201.921875 266.492188 L 1160.371094 266.492188 C 1160.371094 273.421875 1162.347656 278.375 1165.316406 281.351562 C 1168.285156 284.320312 1173.234375 286.300781 1179.167969 286.300781 C 1186.09375 286.300781 1192.03125 284.320312 1197.964844 279.371094 L 1197.964844 288.28125 C 1193.019531 292.25 1186.09375 294.230469 1177.191406 294.230469 C 1169.277344 294.230469 1162.347656 291.257812 1157.402344 286.300781 C 1152.457031 281.351562 1150.476562 273.421875 1150.476562 263.515625 C 1150.476562 254.605469 1153.445312 246.675781 1158.390625 240.730469 C 1163.335938 234.789062 1170.265625 231.816406 1178.179688 231.816406 C 1186.09375 231.816406 1192.03125 234.789062 1195.984375 239.738281 C 1199.941406 244.695312 1201.921875 251.628906 1201.921875 260.546875 Z M 1192.03125 258.566406 C 1192.03125 252.617188 1191.039062 248.65625 1188.074219 245.6875 C 1185.105469 242.714844 1182.136719 240.730469 1177.191406 240.730469 C 1172.246094 240.730469 1169.277344 242.714844 1165.316406 245.6875 C 1161.359375 248.65625 1160.371094 252.617188 1159.382812 258.566406 Z M 1192.03125 258.566406 "/>
<path style=" stroke:none;fill-rule:nonzero;fill:rgb(100%,100%,100%);fill-opacity:1;" d="M 426.359375 163.460938 L 426.359375 107.984375 L 441.199219 107.984375 C 460.984375 107.984375 470.875 116.894531 470.875 134.730469 C 470.875 143.648438 467.90625 150.582031 462.960938 155.535156 C 458.015625 160.488281 450.101562 163.460938 441.199219 163.460938 C 441.199219 163.460938 426.359375 163.460938 426.359375 163.460938 Z M 433.285156 113.925781 L 433.285156 157.515625 L 441.199219 157.515625 C 448.125 157.515625 454.058594 155.535156 458.015625 151.570312 C 461.972656 147.609375 463.949219 141.664062 463.949219 134.730469 C 463.949219 120.863281 456.035156 112.933594 441.199219 112.933594 L 433.285156 112.933594 Z M 433.285156 113.925781 "/>
<path style=" stroke:none;fill-rule:nonzero;fill:rgb(100%,100%,100%);fill-opacity:1;" d="M 500.550781 164.449219 C 494.613281 164.449219 489.667969 162.46875 486.703125 158.507812 C 483.734375 154.542969 481.753906 149.589844 481.753906 143.648438 C 481.753906 136.710938 483.734375 131.761719 487.691406 127.792969 C 491.648438 123.832031 496.59375 121.851562 502.535156 121.851562 C 508.46875 121.851562 513.414062 123.832031 516.382812 127.792969 C 519.351562 131.761719 521.328125 136.710938 521.328125 142.660156 C 521.328125 148.601562 519.351562 153.550781 516.382812 157.515625 C 513.414062 161.480469 506.492188 164.449219 500.550781 164.449219 Z M 500.550781 128.785156 C 496.59375 128.785156 493.625 129.773438 490.660156 132.75 C 487.691406 135.722656 486.703125 139.683594 486.703125 144.640625 C 486.703125 149.589844 487.691406 152.5625 490.660156 155.535156 C 493.625 158.507812 496.59375 159.496094 500.550781 159.496094 C 504.511719 159.496094 507.480469 158.507812 510.449219 155.535156 C 513.414062 152.5625 513.414062 149.589844 513.414062 144.640625 C 513.414062 139.683594 512.425781 135.722656 510.449219 132.75 C 508.46875 129.773438 504.511719 128.785156 500.550781 128.785156 Z M 500.550781 128.785156 "/>
<path style=" stroke:none;fill-rule:nonzero;fill:rgb(100%,100%,100%);fill-opacity:1;" d="M 582.65625 123.832031 L 570.789062 163.460938 L 563.863281 163.460938 L 555.949219 134.730469 C 555.949219 133.742188 554.960938 132.75 554.960938 130.769531 C 554.960938 131.761719 554.960938 132.75 553.972656 134.730469 L 545.070312 163.460938 L 539.132812 163.460938 L 527.261719 123.832031 L 534.1875 123.832031 L 542.101562 153.550781 C 542.101562 154.542969 542.101562 155.535156 543.089844 157.515625 C 543.089844 156.527344 543.089844 155.535156 544.078125 153.550781 L 552.980469 123.832031 L 558.917969 123.832031 L 566.832031 153.550781 C 566.832031 154.542969 566.832031 155.535156 567.820312 157.515625 C 567.820312 156.527344 567.820312 155.535156 568.808594 153.550781 L 576.722656 123.832031 Z M 582.65625 123.832031 "/>
<path style=" stroke:none;fill-rule:nonzero;fill:rgb(100%,100%,100%);fill-opacity:1;" d="M 625.199219 163.460938 L 619.261719 163.460938 L 619.261719 140.671875 C 619.261719 132.75 616.296875 127.792969 610.355469 127.792969 C 607.386719 127.792969 604.421875 128.785156 602.441406 131.761719 C 600.464844 134.730469 599.472656 136.710938 599.472656 140.671875 L 599.472656 163.460938 L 593.539062 163.460938 L 593.539062 123.832031 L 599.472656 123.832031 L 599.472656 130.769531 C 602.441406 125.8125 606.398438 122.84375 612.339844 122.84375 C 616.296875 122.84375 620.253906 123.832031 622.230469 126.804688 C 624.210938 129.773438 625.199219 133.742188 625.199219 138.691406 Z M 625.199219 163.460938 "/>
<path style=" stroke:none;fill-rule:nonzero;fill:rgb(100%,100%,100%);fill-opacity:1;" d="M 644.980469 163.460938 L 639.046875 163.460938 L 639.046875 105.007812 L 644.980469 105.007812 Z M 644.980469 163.460938 "/>
<path style=" stroke:none;fill-rule:nonzero;fill:rgb(100%,100%,100%);fill-opacity:1;" d="M 677.625 164.449219 C 671.691406 164.449219 666.746094 162.46875 663.777344 158.507812 C 660.808594 154.542969 658.832031 149.589844 658.832031 143.648438 C 658.832031 136.710938 660.808594 131.761719 664.765625 127.792969 C 668.722656 123.832031 673.667969 121.851562 679.605469 121.851562 C 685.539062 121.851562 690.484375 123.832031 693.453125 127.792969 C 696.417969 131.761719 698.398438 136.710938 698.398438 142.660156 C 698.398438 148.601562 696.417969 153.550781 693.453125 157.515625 C 687.515625 162.46875 683.558594 164.449219 677.625 164.449219 Z M 677.625 128.785156 C 673.667969 128.785156 670.699219 129.773438 667.734375 132.75 C 664.765625 135.722656 663.777344 139.683594 663.777344 144.640625 C 663.777344 149.589844 664.765625 152.5625 667.734375 155.535156 C 670.699219 158.507812 673.667969 159.496094 677.625 159.496094 C 681.582031 159.496094 684.550781 158.507812 687.515625 155.535156 C 690.484375 152.5625 690.484375 149.589844 690.484375 144.640625 C 690.484375 139.683594 689.496094 135.722656 687.515625 132.75 C 685.539062 129.773438 681.582031 128.785156 677.625 128.785156 Z M 677.625 128.785156 "/>
<path style=" stroke:none;fill-rule:nonzero;fill:rgb(100%,100%,100%);fill-opacity:1;" d="M 737.972656 163.460938 L 732.035156 163.460938 L 732.035156 157.515625 C 729.066406 162.46875 725.113281 164.449219 720.160156 164.449219 C 716.203125 164.449219 713.234375 163.460938 711.257812 161.480469 C 709.28125 159.496094 708.289062 156.527344 708.289062 153.550781 C 708.289062 146.621094 712.246094 141.664062 721.148438 140.671875 L 733.023438 138.691406 C 733.023438 131.761719 730.058594 128.785156 725.113281 128.785156 C 720.160156 128.785156 716.203125 130.769531 712.246094 133.742188 L 712.246094 126.804688 C 716.203125 123.832031 720.160156 122.84375 726.101562 122.84375 C 735.003906 122.84375 739.949219 127.792969 739.949219 137.703125 L 739.949219 163.460938 Z M 731.046875 143.648438 L 721.148438 144.640625 C 718.183594 144.640625 716.203125 145.628906 714.226562 146.621094 C 712.246094 147.609375 712.246094 149.589844 712.246094 152.5625 C 712.246094 154.542969 713.234375 156.527344 714.226562 157.515625 C 715.214844 158.507812 717.191406 159.496094 720.160156 159.496094 C 723.128906 159.496094 726.101562 158.507812 728.078125 156.527344 C 730.058594 154.542969 731.046875 151.570312 731.046875 148.601562 C 731.046875 148.601562 731.046875 143.648438 731.046875 143.648438 Z M 731.046875 143.648438 "/>
<path style=" stroke:none;fill-rule:nonzero;fill:rgb(100%,100%,100%);fill-opacity:1;" d="M 785.453125 163.460938 L 779.515625 163.460938 L 779.515625 156.527344 C 776.550781 161.480469 771.601562 164.449219 765.667969 164.449219 C 760.722656 164.449219 756.765625 162.46875 753.796875 159.496094 C 750.832031 156.527344 748.851562 151.570312 748.851562 144.640625 C 748.851562 137.703125 750.832031 132.75 753.796875 128.785156 C 756.765625 124.824219 761.710938 122.84375 766.65625 122.84375 C 771.601562 122.84375 775.558594 124.824219 778.527344 128.785156 L 778.527344 104.019531 L 784.460938 104.019531 Z M 779.515625 145.628906 L 779.515625 139.683594 C 779.515625 136.710938 778.527344 133.742188 776.550781 131.761719 C 774.570312 129.773438 771.601562 128.785156 768.636719 128.785156 C 764.679688 128.785156 761.710938 129.773438 759.734375 132.75 C 757.753906 135.722656 756.765625 139.683594 756.765625 144.640625 C 756.765625 149.589844 757.753906 152.5625 759.734375 155.535156 C 761.710938 158.507812 764.679688 159.496094 768.636719 159.496094 C 772.59375 159.496094 774.570312 158.507812 777.539062 155.535156 C 780.507812 152.5625 779.515625 149.589844 779.515625 145.628906 Z M 779.515625 145.628906 "/>
<path style=" stroke:none;fill-rule:nonzero;fill:rgb(100%,100%,100%);fill-opacity:1;" d="M 844.808594 110.953125 C 843.820312 109.964844 841.839844 109.964844 840.851562 109.964844 C 836.894531 109.964844 833.921875 112.933594 833.921875 117.890625 L 833.921875 123.832031 L 842.832031 123.832031 L 842.832031 128.785156 L 833.921875 128.785156 L 833.921875 163.460938 L 827.988281 163.460938 L 827.988281 128.785156 L 821.0625 128.785156 L 821.0625 123.832031 L 827.988281 123.832031 L 827.988281 117.890625 C 827.988281 113.925781 828.976562 109.964844 831.945312 107.984375 C 834.917969 106.003906 836.894531 104.019531 840.851562 104.019531 C 842.832031 104.019531 844.808594 104.019531 845.796875 105.007812 Z M 844.808594 110.953125 "/>
<path style=" stroke:none;fill-rule:nonzero;fill:rgb(100%,100%,100%);fill-opacity:1;" d="M 872.507812 130.769531 C 871.515625 129.773438 869.539062 129.773438 867.558594 129.773438 C 864.59375 129.773438 862.613281 130.769531 860.636719 133.742188 C 858.65625 136.710938 857.667969 139.683594 857.667969 144.640625 L 857.667969 164.449219 L 851.734375 164.449219 L 851.734375 124.824219 L 857.667969 124.824219 L 857.667969 132.75 C 858.65625 129.773438 859.644531 127.792969 861.625 125.8125 C 863.601562 123.832031 865.582031 123.832031 867.558594 123.832031 C 869.539062 123.832031 870.527344 123.832031 871.515625 124.824219 Z M 872.507812 130.769531 "/>
<path style=" stroke:none;fill-rule:nonzero;fill:rgb(100%,100%,100%);fill-opacity:1;" d="M 898.226562 164.449219 C 892.289062 164.449219 887.34375 162.46875 884.375 158.507812 C 881.410156 154.542969 879.429688 149.589844 879.429688 143.648438 C 879.429688 136.710938 881.410156 131.761719 885.367188 127.792969 C 889.320312 123.832031 894.269531 121.851562 900.203125 121.851562 C 906.136719 121.851562 911.085938 123.832031 914.050781 127.792969 C 917.019531 131.761719 918.996094 136.710938 918.996094 142.660156 C 918.996094 148.601562 917.019531 153.550781 914.050781 157.515625 C 911.085938 161.480469 904.160156 164.449219 898.226562 164.449219 Z M 899.214844 128.785156 C 895.257812 128.785156 892.289062 129.773438 889.320312 132.75 C 886.355469 135.722656 885.367188 139.683594 885.367188 144.640625 C 885.367188 149.589844 886.355469 152.5625 889.320312 155.535156 C 892.289062 158.507812 895.257812 159.496094 899.214844 159.496094 C 903.171875 159.496094 906.136719 158.507812 909.105469 155.535156 C 912.074219 152.5625 912.074219 149.589844 912.074219 144.640625 C 912.074219 139.683594 911.085938 135.722656 909.105469 132.75 C 907.128906 129.773438 903.171875 128.785156 899.214844 128.785156 Z M 899.214844 128.785156 "/>
<path style=" stroke:none;fill-rule:nonzero;fill:rgb(100%,100%,100%);fill-opacity:1;" d="M 987.257812 163.460938 L 981.320312 163.460938 L 981.320312 140.671875 C 981.320312 136.710938 980.332031 132.75 979.34375 130.769531 C 978.355469 128.785156 975.386719 128.785156 971.429688 128.785156 C 968.460938 128.785156 966.484375 129.773438 964.503906 132.75 C 962.527344 135.722656 961.539062 137.703125 961.539062 141.664062 L 961.539062 164.449219 L 955.601562 164.449219 L 955.601562 140.671875 C 955.601562 132.75 952.636719 128.785156 946.699219 128.785156 C 943.726562 128.785156 941.75 129.773438 939.769531 132.75 C 937.792969 135.722656 936.804688 137.703125 936.804688 141.664062 L 936.804688 164.449219 L 930.867188 164.449219 L 930.867188 124.824219 L 936.804688 124.824219 L 936.804688 130.769531 C 939.769531 125.8125 943.726562 123.832031 948.679688 123.832031 C 951.644531 123.832031 953.625 124.824219 955.601562 125.8125 C 957.582031 126.804688 958.570312 129.773438 959.558594 131.761719 C 962.527344 125.8125 966.484375 123.832031 972.417969 123.832031 C 981.320312 123.832031 985.277344 128.785156 985.277344 139.683594 L 985.277344 163.460938 Z M 987.257812 163.460938 "/>
<path style=" stroke:none;fill-rule:nonzero;fill:rgb(100%,100%,100%);fill-opacity:1;" d="M 126.621094 124.824219 L 205.761719 112.933594 L 205.761719 191.195312 L 126.621094 191.195312 Z M 126.621094 124.824219 "/>
<path style=" stroke:none;fill-rule:nonzero;fill:rgb(100%,100%,100%);fill-opacity:1;" d="M 126.621094 199.125 L 205.761719 199.125 L 205.761719 276.394531 L 126.621094 266.492188 Z M 126.621094 199.125 "/>
<path style=" stroke:none;fill-rule:nonzero;fill:rgb(100%,100%,100%);fill-opacity:1;" d="M 321.5 96.097656 L 321.5 189.214844 L 215.652344 191.195312 L 215.652344 110.953125 Z M 321.5 96.097656 "/>
<path style=" stroke:none;fill-rule:nonzero;fill:rgb(100%,100%,100%);fill-opacity:1;" d="M 321.5 201.105469 L 321.5 292.25 L 215.652344 278.375 L 215.652344 201.105469 Z M 321.5 201.105469 "/>
</g>
</svg>
