<?xml version="1.0" standalone="no"?>
<!DOCTYPE svg PUBLIC "-//W3C//DTD SVG 20010904//EN"
 "http://www.w3.org/TR/2001/REC-SVG-20010904/DTD/svg10.dtd">
<svg version="1.0" xmlns="http://www.w3.org/2000/svg"
 width="700.000000pt" height="700.000000pt" viewBox="0 0 700.000000 700.000000"
 preserveAspectRatio="xMidYMid meet">
<metadata>
Created by potrace 1.11, written by Peter Selinger 2001-2013
</metadata>
<g transform="translate(0.000000,700.000000) scale(0.100000,-0.100000)"
fill="#000000" stroke="none">
<path d="M896 6989 c-413 -61 -750 -363 -864 -775 l-27 -99 0 -2615 0 -2615
27 -99 c103 -372 382 -651 757 -754 l96 -27 2615 0 2615 0 99 27 c372 103 651
383 754 757 l27 96 0 2615 0 2615 -27 99 c-103 373 -381 651 -756 754 l-97 27
-2580 1 c-1420 1 -2607 -2 -2639 -7z m316 -3196 c3 -577 4 -589 25 -654 42
-123 138 -224 253 -264 25 -9 77 -19 116 -22 200 -16 370 100 436 297 22 63
22 80 26 648 l3 582 130 0 129 0 -2 -867 -3 -868 -127 -3 -128 -3 0 80 0 80
-72 -55 c-171 -128 -391 -162 -608 -95 -196 61 -352 228 -416 446 -16 54 -18
123 -21 673 l-4 612 130 0 130 0 3 -587z m1558 277 c0 -170 3 -310 6 -310 3 0
25 16 47 36 60 51 189 112 277 130 215 46 460 -38 615 -209 63 -69 126 -189
150 -282 22 -88 20 -244 -6 -335 -110 -400 -562 -601 -931 -414 -26 13 -72 44
-103 69 l-55 45 0 -80 0 -81 -122 3 -123 3 -3 868 -2 867 125 0 125 0 0 -310z
m2056 -161 c146 -45 251 -122 333 -244 71 -106 102 -209 109 -352 l5 -113
-514 -2 -514 -3 3 -25 c6 -46 60 -148 102 -194 92 -100 197 -141 345 -134 80
3 101 8 161 38 40 19 91 56 122 86 l53 53 89 -66 89 -65 -29 -37 c-66 -82
-178 -157 -292 -197 -100 -35 -272 -44 -381 -20 -93 21 -215 79 -285 137 -234
191 -300 542 -155 822 56 109 173 222 283 275 47 22 110 45 140 51 30 6 64 13
75 15 43 10 195 -5 261 -25z m1224 -104 l0 -115 -68 0 c-107 0 -168 -23 -228
-84 -88 -90 -88 -90 -92 -553 l-3 -403 -125 0 -124 0 0 630 0 630 125 0 125 0
0 -76 0 -76 28 34 c75 91 153 126 285 127 l77 1 0 -115z"/>
<path d="M3123 3709 c-100 -19 -209 -88 -269 -170 -20 -27 -48 -82 -61 -122
-22 -61 -25 -85 -21 -163 3 -81 8 -100 41 -166 97 -198 316 -293 525 -229 207
63 340 280 302 491 -17 95 -55 166 -124 236 -108 107 -250 152 -393 123z"/>
<path d="M4530 3705 c-67 -19 -137 -63 -185 -117 -35 -38 -95 -149 -95 -175 0
-10 84 -13 385 -13 l385 0 -20 52 c-25 67 -79 145 -125 181 -93 74 -233 103
-345 72z"/>
</g>
</svg>
